<svg width="642" height="908" viewBox="0 0 642 908" fill="none" xmlns="http://www.w3.org/2000/svg">
<path d="M76 525C76.1334 525.4 76.9334 527.134 78 529C80.9334 534.067 80.9334 618.067 78 623.667L75.8667 627.667H103.333C138.4 627.667 136 629.534 136 602.867C136 591.8 135.333 582.334 134.533 580.867C133.867 579.4 131.6 577.667 129.6 576.867L126.133 575.534L129.333 573.934C134.8 571.267 136 566.867 136 549.934C136 538.467 135.467 533.134 134 530.334C132.8 528.067 131.733 526.2 131.6 526.067C130.933 525.534 76 524.467 76 525ZM114.667 541C116.8 543.134 117.333 545.4 117.333 553.667C117.333 566.334 115.2 569 105.333 569H98.6667V553.667V538.334H105.333C110.267 538.334 112.667 539 114.667 541ZM115.2 584.467C116.8 586.067 117.333 589.4 117.333 598.334C117.333 609 117.067 610.334 114.4 612.2C112.667 613.4 108.667 614.334 105.067 614.334H98.6667V598.334V582.334H105.867C110.667 582.334 113.867 583 115.2 584.467Z" fill="black"/>
<path d="M182.667 525C182.8 525.4 183.6 527.133 184.667 529C186.133 531.667 186.533 540.067 186.667 571.933C186.667 609.8 186.533 611.667 184.133 613C179.467 615.4 172.4 614.6 170.133 611.4C167.067 607.133 167.067 535.533 170 530.333C171.067 528.467 171.867 526.6 172 525.933C172 525.4 165.867 525 158.533 525H145.067L147.2 528.333C149.067 531.133 149.333 537.267 149.333 575C149.333 620.6 149.867 624.733 155.333 626.867C156.533 627.267 166.8 627.667 178 627.667C196 627.667 198.667 627.4 201.467 625.133L204.667 622.6L205.333 576.733C205.867 543.667 206.4 530.2 207.733 528.067C208.533 526.467 209.333 525 209.333 524.733C209.333 524.467 203.333 524.333 196 524.333C188.667 524.333 182.667 524.6 182.667 525Z" fill="black"/>
<path d="M217.333 525.933C217.467 526.6 218.267 528.467 219.333 530.333C220.933 533 221.2 541.8 221.333 576.333C221.333 616.6 221.2 619.267 218.667 623.267L216 627.667H230.133H244.267L242.133 624.333C240.4 621.8 240 617.4 240 602.333V583.667H244C249.067 583.667 250.533 586.6 255.2 605.667C258 617.267 258.533 621.133 257.467 624.067L256 627.667H270.933H285.867L282.4 623.933C280 621.4 277.2 614.733 273.467 602.067L268 583.667L272.267 579.8L276.667 575.933L277.067 557.533C277.6 536.6 276.933 531.267 273.2 527.533C270.8 525.133 268.667 525 244 525C229.333 525 217.333 525.4 217.333 525.933ZM255.467 540.2C257.6 541.8 258 543.8 258 553.4C258 567.4 256.933 569 247.2 569H240V553.667V538.333H246.4C250 538.333 254 539.133 255.467 540.2Z" fill="black"/>
<path d="M293.467 528.467C290.8 531.933 290.667 533.4 290.667 576.333C290.667 619.133 290.8 620.733 293.467 624.2L296.133 627.667H318.667H341.2L343.867 624.2C346.4 621 346.667 618.867 346.667 602.467C346.667 588.467 347.067 583.533 348.667 581.533C352.667 576.333 351.467 575.667 337.333 575.667C330 575.667 324 576.067 324 576.6C324.133 577.267 324.933 579.133 326 581C327.333 583.267 327.867 588.6 328 597.933C328 610.067 327.733 611.667 325.467 613C322.133 614.733 315.2 614.733 311.867 613C309.467 611.667 309.333 609.8 309.333 576.333C309.333 536.6 308.933 538.333 319.733 538.333C326.533 538.333 328.533 540.867 328.8 549.533L329.067 556.333L337.467 561.267L346 566.2L346.4 549.267C346.933 524.733 348 525.8 318.933 525.267L296.267 525L293.467 528.467Z" fill="black"/>
<path d="M359.2 528.333C361.067 531.133 361.333 537.4 361.333 576.333C361.333 615.267 361.067 621.533 359.2 624.333L357.067 627.667H385.2H413.333V617C413.333 611.133 412.933 606.333 412.4 606.333C411.733 606.333 408.133 608.2 404.133 610.333C398.267 613.533 395.333 614.333 388.4 614.333H380V598.867V583.4L389.733 583.933C394.933 584.333 400.4 585 401.733 585.533C403.733 586.467 404 585.667 404 575.933V565.133L400.4 567.133C398.267 568.2 392.933 569 388.4 569H380V553.667V538.333H388.667C395.867 538.333 398.533 539 404.4 542.333C408.4 544.467 412 546.333 412.4 546.333C412.933 546.333 413.333 541.533 413.333 535.667V525H385.2H357.067L359.2 528.333Z" fill="black"/>
<path d="M424 529.267C426.533 533.4 426.667 536.2 426.667 576.333C426.667 616.467 426.533 619.267 424 623.267L421.333 627.667H435.467H449.6L447.467 624.333C445.733 621.8 445.333 617.4 445.333 602.333V583.667H448.533C452.8 583.667 455.6 586.6 457.2 592.733C463.467 616.733 464.133 620.067 462.8 623.8L461.467 627.667H476.267H491.2L487.733 623.933C485.867 621.933 483.2 617 482 613C480.8 609 478.4 600.733 476.533 594.6L473.333 583.667L477.733 579.8L482 575.933L482.533 559C483.067 539 482 531 478.533 527.533C476.133 525.133 473.867 525 448.667 525H421.333L424 529.267ZM458.267 539.133C462.267 540.2 464.4 547.4 463.733 557C462.933 567.267 461.467 569 452.533 569H445.333V553.667V538.333H450.4C453.067 538.333 456.667 538.733 458.267 539.133Z" fill="black"/>
<path d="M499.467 526.734C496.267 529.134 494.667 537 494.8 551C494.8 569.667 495.6 571 511.467 579.667C533.467 591.667 532 590.2 532 601.667C532 612.734 530.8 614.334 522.667 614.334C514.8 614.334 513.333 612.467 513.333 603.267V594.867L504.667 590.6C499.867 588.2 495.6 586.334 495.2 586.334C494.8 586.334 494.667 594.467 494.933 604.467C495.467 628.734 494.267 627.667 523.2 627.667C551.867 627.667 550.667 628.734 550.667 602.467C550.667 583.534 550.667 583.4 547.067 579.8C544.933 577.8 538 573.267 531.333 569.8C514.533 560.867 514.667 561 514.667 550.2C514.667 540.2 516.133 538.334 523.6 538.334C529.733 538.334 531.2 540.2 532 548.467L532.667 556.067L540.667 560.467C545.067 563 548.933 565 549.333 565C549.733 565 549.733 557.267 549.333 547.667C548.4 523.934 549.733 525 522.933 525C507.867 525 501.2 525.534 499.467 526.734Z" fill="black"/>
<path d="M207.733 672.067L220.133 684.467L208 696.2C201.467 702.733 196 708.067 196 708.2C196 708.2 248.8 708.333 313.333 708.333C377.867 708.333 430.667 708.2 430.667 708.2C430.667 708.067 425.2 702.733 418.667 696.2L406.533 684.467L418.933 672.067L431.333 659.667H313.333H195.333L207.733 672.067ZM314.8 671.667C316.267 672.467 317.333 674.467 317.333 676.333C317.333 680.333 315.2 680.733 314.267 677C313.867 675.533 312.933 674.333 312.133 674.333C311.2 674.333 310.667 677.8 310.667 683.8C310.667 690.733 311.067 693.133 312.4 692.733C313.2 692.333 314.133 690.867 314.4 689.267C315.067 684.867 317.333 685.667 317.333 690.333C317.333 695 314 697.267 309.733 695.533C306.933 694.467 306.667 693.533 306.667 683.8C306.667 675 307.067 672.867 309.067 671.8C311.867 670.067 311.733 670.067 314.8 671.667ZM347.2 672.067C349.067 673.4 349.333 675.533 349.067 684.333L348.667 695L344.667 695.4C339.333 696.067 337.333 692.867 337.333 683.4C337.333 677.4 338 675 340 673C343.067 669.933 344 669.8 347.2 672.067ZM386.667 673C388.133 674.467 389.333 676.2 389.333 677C389.333 679.133 385.733 678.6 384.8 676.333C384.4 675.267 383.467 674.333 382.667 674.333C380.267 674.333 381.2 679.133 384.133 681.8C391.067 687.933 389.867 696.2 382.267 695.4C379.067 695.133 377.867 694.333 377.6 691.933C377.333 689.933 377.867 689 379.2 689C380.4 689 381.333 689.933 381.333 691.133C381.333 692.333 382.133 693 383.067 692.6C385.467 691.8 384.267 687.533 380.533 683.533C376.8 679.667 376.4 673.667 379.733 671.8C382.933 669.8 383.6 669.933 386.667 673ZM248.667 683.667V695L243.067 695.4L237.333 695.8V683.667V671.533L243.067 671.933L248.667 672.333V683.667ZM269.333 673C269.333 673.667 267.6 674.333 265.333 674.333C262 674.333 261.333 674.867 261.333 677.667C261.333 680.067 262 681 264 681C265.467 681 266.667 681.933 266.667 683C266.667 684.067 265.467 685 263.867 685C261.733 685 261.2 685.667 261.6 688.6C261.867 691.533 262.667 692.333 265.2 692.333C267.067 692.333 268.667 693.133 269.067 694.067C269.333 695.133 267.733 695.667 263.467 695.667H257.333V683.667V671.667H263.333C266.667 671.667 269.333 672.2 269.333 673ZM280.267 681.933C280.667 691.8 280.8 692.333 283.733 692.2C285.333 692.2 286.667 692.867 286.667 693.933C286.667 695.133 284.933 695.667 281.333 695.667H276V683.667C276 674.067 276.4 671.667 278 671.667C279.467 671.667 280 674.067 280.267 681.933ZM298.667 683.667C298.667 693.4 298.267 695.667 296.667 695.667C295.067 695.667 294.667 693.4 294.667 683.667C294.667 673.933 295.067 671.667 296.667 671.667C298.267 671.667 298.667 673.933 298.667 683.667ZM329.333 683.667C329.333 693.4 328.933 695.667 327.333 695.667C325.733 695.667 325.333 693.4 325.333 683.667C325.333 673.933 325.733 671.667 327.333 671.667C328.933 671.667 329.333 673.933 329.333 683.667ZM361.6 681.933C361.867 688.6 362.533 692.333 363.733 692.733C364.933 693.133 365.333 690.467 365.333 682.467C365.333 673.667 365.733 671.667 367.333 671.667C369.067 671.667 369.333 673.533 369.067 683.267L368.667 695L364.667 695.4C359.067 696.067 357.333 692.867 357.333 681.4C357.333 673.8 357.733 671.667 359.333 671.667C360.8 671.667 361.333 674.067 361.6 681.933Z" fill="black"/>
<path d="M341.867 676.2C340.533 679.534 342 692.067 343.733 692.734C344.933 693.134 345.333 690.734 345.333 683.8C345.333 675 343.733 671.4 341.867 676.2Z" fill="black"/>
<path d="M241.867 676.2C240.667 679.267 241.867 692.333 243.333 692.067C245.2 691.533 245.867 674.333 244 674.333C243.2 674.333 242.267 675.133 241.867 676.2Z" fill="black"/>
<path d="M162.8 673.933C161.333 679.533 161.2 679.533 154.4 679.933L147.467 680.333L152.933 684.067L158.533 687.933L156.533 693.267C155.467 696.2 154.667 698.867 154.667 699.133C154.667 699.533 157.067 698.2 159.867 696.2L165.2 692.733L170.133 696.6L175.2 700.333L174.267 697C171.6 687.533 171.6 687.133 176.8 683.667L181.867 680.333L174.933 679.933C170.667 679.667 168 678.867 168 677.933C167.867 677 167.067 674.467 166.133 672.333L164.4 668.333L162.8 673.933Z" fill="black"/>
<path d="M459.867 674.333C458.267 679.4 458.133 679.533 451.6 679.933L444.8 680.333L449.867 683.667C455.067 687.133 455.067 687.533 452.4 697L451.467 700.333L456.4 696.6C458.933 694.6 461.6 693 462 693C462.4 693 464.933 694.6 467.467 696.467C472.667 700.467 472.667 700.467 470.133 693.267L468.133 687.933L473.733 684.067L479.2 680.333L472.267 679.933C465.467 679.533 465.333 679.4 464 674.2C463.2 671.4 462.267 669 462 669C461.733 669 460.667 671.4 459.867 674.333Z" fill="black"/>
<path d="M125.467 678.867C124.133 682.067 123.467 682.467 120.267 681.8L116.667 681L119.733 683.534C122.133 685.667 122.533 687 121.867 689.934C120.933 693.667 120.933 693.667 123.867 691.134C126.533 688.734 126.8 688.734 129.067 690.734C132.533 693.934 133.467 693.534 132 689.667C130.933 687 131.2 686.067 133.333 684.734C136.933 682.467 136.667 681.267 132.8 681.934C130.267 682.467 129.333 681.8 128.267 678.734L126.933 675L125.467 678.867Z" fill="black"/>
<path d="M498.133 679.134C497.333 681.934 496.533 682.467 494 681.934C490 681.267 489.733 682.467 493.333 684.734C495.467 686.067 495.733 687 494.667 689.667C493.2 693.534 494.133 693.934 497.6 690.734C499.867 688.734 500.133 688.734 502.8 691.134C505.733 693.667 505.733 693.667 504.8 689.934C504.133 687 504.533 685.667 506.933 683.534L510 681L506.4 681.8C503.333 682.467 502.533 682.067 501.333 679.134C499.733 674.734 499.2 674.734 498.133 679.134Z" fill="black"/>
<path d="M96 681C96 681.667 95.0667 682.334 93.8667 682.334C92.1333 682.334 92 682.734 93.3333 684.334C94.1333 685.4 94.4 687 93.8667 687.8C93.2 689 93.6 689.134 95.3333 688.6C96.5333 688.067 98.6667 688.334 99.7333 689.267C101.467 690.734 101.733 690.6 100.933 688.467C100.4 687.134 100.667 685.134 101.467 684.2C102.667 682.734 102.533 682.334 100.8 682.334C99.6 682.334 98.6667 681.667 98.6667 681C98.6667 680.2 98.1333 679.667 97.3333 679.667C96.6667 679.667 96 680.2 96 681Z" fill="black"/>
<path d="M528 681C528 681.667 527.067 682.334 525.867 682.334C524.133 682.334 524 682.734 525.2 684.2C526 685.134 526.267 687.134 525.733 688.467C524.933 690.6 525.2 690.734 526.933 689.267C528 688.334 530.133 688.067 531.333 688.6C533.067 689.134 533.467 689 532.8 687.8C532.267 687 532.533 685.4 533.333 684.334C534.667 682.734 534.533 682.334 532.8 682.334C531.6 682.334 530.667 681.667 530.667 681C530.667 680.2 530.133 679.667 529.333 679.667C528.667 679.667 528 680.2 528 681Z" fill="black"/>
<path fill-rule="evenodd" clip-rule="evenodd" d="M223.634 489.535C219.516 489.965 215.397 490.466 211.135 490.86L201.322 492.544C201.035 492.615 200.569 492.83 200.319 492.938C200.104 493.009 199.674 493.188 199.352 493.332L227.538 497.164C283.876 499.17 375.778 501.247 430.79 496.161C433.154 495.946 435.518 495.839 437.846 495.516L443.935 493.797C444.185 493.69 444.579 493.511 444.902 493.332C440.102 490.717 426.6 490.287 420.691 489.571L402.102 488.854C402.102 488.854 432.366 456.19 425.741 442.866C425.991 442.651 426.385 442.436 426.564 442.329L428.176 441.362C428.498 441.183 429.537 440.753 429.895 440.61C431.507 439.893 431.614 440.108 433.118 439.356L433.298 437.673C431.722 430.653 428.104 433.59 428.283 426.391C428.498 419.048 438.741 414.965 423.806 389.535C430.397 371.914 421.478 358.411 409.122 342.687C399.774 330.796 389.316 321.52 373.164 313.031C292.543 270.589 218.334 342.15 217.367 379.399C217.152 388.318 214.645 383.697 214.645 393.296C214.609 403.396 211.027 414.607 211.708 422.128C213.069 437.494 209.237 428.468 212.997 435.667C217.224 443.762 214.931 450.531 226.93 469.908C235.131 483.088 237.853 483.303 241.363 488.854L223.634 489.535Z" fill="#140100"/>
<path fill-rule="evenodd" clip-rule="evenodd" d="M223.634 489.535L241.363 488.854C237.853 483.303 235.131 483.088 226.929 469.907C214.931 450.531 217.223 443.761 212.997 435.667C209.237 428.468 213.069 437.493 211.708 422.128C211.027 414.607 214.609 403.396 214.645 393.296C214.645 383.697 217.152 388.317 217.367 379.399C218.334 342.15 292.543 270.589 373.163 313.031C389.316 321.52 399.774 330.796 409.122 342.687C421.478 358.411 430.396 371.913 423.806 389.535C438.741 414.965 428.498 419.048 428.283 426.39C428.104 433.589 431.722 430.652 433.297 437.673C451.85 420.875 431.471 403.754 453.533 373.239L463.382 360.381C466.856 356.226 465.173 360.13 465.997 355.545C438.992 356.763 434.73 363.246 430.396 363.461C425.132 363.747 421.335 357.085 420.189 351.964C415.39 330.259 433.333 327.823 420.225 294.908C416.93 286.67 409.659 270.947 404.394 265.789C403.714 281.047 404.359 289.965 396.694 302.394C387.311 317.58 378.536 302.967 377.855 289.536C376.996 272.344 378.858 264.464 367.899 254.937C360.556 248.562 348.952 243.082 336.095 242.401C341.861 249.672 351.388 254.973 351.603 269.299C351.961 293.869 312.313 278.97 304.326 258.125C302.106 252.286 302.177 246.269 304.72 240.36C305.723 238.103 307.335 235.668 308.517 234.127C311.489 230.223 311.633 231.405 313.674 227C297.915 231.262 271.161 249.349 264.571 265.897C260.524 275.997 264.643 283.017 262.1 293.941C257.122 315.288 224.816 345.553 207.267 292.186L204.831 286.849C199.244 292.795 194.517 302.895 194.337 313.568C193.872 343.905 217.976 332.945 208.198 405.975C202.074 392.329 189.467 379.256 176 376.82C195.412 414.069 185.634 405.473 191.186 441.147C194.875 464.893 210.741 479.649 223.634 489.535Z" fill="#FA4D29"/>
<path fill-rule="evenodd" clip-rule="evenodd" d="M289.141 309.199C290.86 312.171 291.612 309.163 288.066 312.565C287.028 313.532 283.41 314.499 279.112 318.511C260.667 335.774 233.018 367.329 276.104 378.969C297.486 384.736 306.547 379.721 313.28 384.986C329.54 386.097 351.674 384.807 368.794 384.807C378.357 384.807 388.278 385.058 397.804 384.7C408.334 384.27 417.001 386.419 422.804 380.223L422.875 375.602C416.787 379.685 426.564 385.022 402.998 383.697C405.863 376.39 406.078 376.892 402.568 368.296L387.131 343.26L372.519 328.826C360.306 316.899 342.541 311.992 326.89 306.262C340.607 305.33 346.982 311.527 347.627 307.372C329.433 303.002 306.404 302.501 289.141 309.199Z" fill="#F9BA4D"/>
<path fill-rule="evenodd" clip-rule="evenodd" d="M217.474 412.314C212.353 417.83 214.716 423.847 218.692 429.077L220.554 429.578C240.683 434.95 294.406 432.73 318.33 432.837C341.753 432.945 399.918 436.061 418.148 429.829C418.542 429.542 419.688 428.432 419.974 428.253L423.162 426.104C425.06 421.842 433.512 410.524 425.418 405.653C422.123 407.229 417.36 401.426 400.276 402.716C374.883 404.686 383.192 412.279 349.669 407.587C333.229 405.259 310.63 410.846 291.827 408.59C271.054 406.082 272.845 400.101 242.473 409.557C234.2 412.135 228.362 414.965 220.841 417.651L217.474 412.314Z" fill="#7B3434"/>
<path fill-rule="evenodd" clip-rule="evenodd" d="M228.971 465C231.227 464.427 228.47 463.783 231.263 465.609C233.913 467.329 234.737 470.23 238.677 473.417C244.98 478.575 255.725 483.589 263.712 486.24C266.828 487.278 267.831 487.636 271.555 488.353C278.325 489.606 277.25 489.929 279.256 491.97C272.594 492.114 264.75 493.224 258.662 490.645C262.279 492.83 376.279 492.293 387.346 490.788C383.729 487.672 362.061 489.606 356.187 489.642C346.195 489.642 331.904 490.681 322.556 489.212C346.983 483.052 367.182 479.936 386.952 463.46C398.019 454.22 385.627 446.841 368.83 451.677C357.978 454.793 357.369 453.647 347.305 450.351C328.932 444.299 334.232 464.821 305.795 459.234C298.345 457.766 291.146 454.9 285.631 451.319C273.74 443.654 284.664 457.228 266.613 452.894C258.34 450.889 251.391 453.682 243.369 454.685C240.468 455.079 233.305 455.581 230.618 454.829C221.521 452.25 232.194 450.889 220.626 447.773C222.273 453.862 224.924 461.168 228.971 465Z" fill="#F9BA4D"/>
<path fill-rule="evenodd" clip-rule="evenodd" d="M226.715 424.994C241.291 434.521 311.239 427.357 329.54 428.933C349.239 430.653 362.347 430.796 382.117 428.145C391.823 426.82 421.299 423.704 422.804 412.314C413.778 401.283 387.418 411.777 375.814 414.356C355.793 418.761 341.288 411.491 321.124 413.89C288.639 417.759 295.91 420.122 269.442 410.882C260.668 407.837 251.033 410.416 244.121 412.673C236.85 415.037 227.073 417.651 226.715 424.994Z" fill="#A34D4A"/>
<path fill-rule="evenodd" clip-rule="evenodd" d="M220.626 447.773C232.194 450.889 221.521 452.25 230.618 454.829C233.305 455.581 240.468 455.079 243.369 454.685C251.391 453.682 258.34 450.889 266.613 452.895C284.664 457.228 273.74 443.654 285.631 451.319C291.146 454.9 298.345 457.766 305.795 459.234C334.232 464.821 328.932 444.299 347.305 450.352C357.369 453.647 357.978 454.793 368.83 451.677C385.627 446.842 398.019 454.22 386.952 463.46C367.182 479.936 346.983 483.052 322.556 489.212C331.904 490.681 346.195 489.642 356.187 489.642C362.061 489.606 383.729 487.672 387.346 490.788C404.395 486.92 416.393 467.902 422.41 450.602L416.858 450.674L416.715 455.903C412.99 454.506 409.337 451.677 407.081 450.96C398.986 448.417 404.609 453.862 397.052 452.357C394.116 451.748 392.289 448.632 386.451 447.737C376.745 446.233 365.571 448.203 357.369 448.059C345.622 447.844 343.759 438.926 325.171 452.071C311.704 461.562 291.648 446.734 280.294 445.301C271.376 444.191 276.641 448.167 267.687 445.516C262.064 443.833 263.282 443.081 256.979 445.624C247.595 449.456 247.165 450.495 233.842 450.71C228.613 448.668 231.8 450.28 229.401 444.979L220.698 444.012L220.626 447.773Z" fill="#DA9631"/>
<path fill-rule="evenodd" clip-rule="evenodd" d="M313.28 384.987C298.56 384.414 230.296 388.103 222.882 382.408C222.166 383.411 221.593 384.664 220.769 385.596C239.035 388.497 303.073 383.053 313.459 389.5C287.995 392.293 244.443 399.385 220.017 394.299L219.48 388.783C217.474 390.717 218.226 387.1 218.011 392.831C218.011 393.225 218.549 396.555 218.62 398.024C226.786 404.077 217.188 403.432 242.652 404.113C252.251 404.363 262.1 404.113 271.699 403.611C291.075 402.608 305.437 400.674 323.523 397.129C344.905 392.902 346.553 399.851 372.196 401.176C381.258 401.641 389.674 401.749 398.592 400.495C402.675 399.886 406.758 398.597 410.161 396.842C415.999 393.869 414.459 392.472 419.473 390.646V387.745C413.599 388.927 419.938 387.494 414.172 389.321C412.525 389.858 411.056 390.359 409.158 390.789C400.061 392.902 385.663 392.114 376.494 391.47C362.992 390.467 349.239 387.494 337.921 386.419L417.682 385.524C422.016 385.703 417.861 383.733 420.511 386.276C421.657 384.987 421.443 386.491 422.302 383.841C423.269 380.939 422.589 383.053 422.804 380.223C417.001 386.419 408.334 384.27 397.804 384.7C388.278 385.058 378.357 384.808 368.794 384.808C351.674 384.808 329.54 386.097 313.28 384.987Z" fill="#C52B05"/>
<path fill-rule="evenodd" clip-rule="evenodd" d="M222.882 382.408C230.296 388.102 298.56 384.413 313.28 384.986C306.547 379.721 297.486 384.736 276.104 378.969C233.018 367.329 260.667 335.775 279.112 318.511C283.41 314.5 287.028 313.533 288.066 312.565C291.612 309.163 290.86 312.171 289.141 309.199C266.971 315.18 248.741 330.295 236.814 345.732C233.842 349.564 232.409 351.964 229.616 356.262C225.891 361.992 216.292 375.567 222.882 382.408Z" fill="#F7CB86"/>
<path fill-rule="evenodd" clip-rule="evenodd" d="M418.148 429.829C399.918 436.061 341.753 432.945 318.33 432.837C294.406 432.73 240.683 434.951 220.554 429.578C222.703 435.416 225.067 428.683 228.04 434.127C230.547 438.676 223.778 438.568 231.693 441.004C234.451 441.863 237.316 441.72 240.145 441.648C241.148 443.403 239.895 444.263 241.256 446.018C251.32 442.078 263.21 438.496 273.06 442.544L275.71 436.741C286.562 437.852 297.342 448.31 312.098 449.958L313.03 446.018C324.598 446.949 328.752 442.186 338.745 440.466C353.107 438.031 355.327 444.693 367.541 444.263C379.61 443.869 381.15 438.926 394.259 443.941C395.835 444.549 398.521 445.982 399.13 446.161L404.072 446.627C409.767 447.057 408.227 448.024 417.216 445.194C417.467 445.122 417.897 445.051 418.183 444.872C415.999 443.153 413.492 441.075 413.957 437.529C414.853 430.724 413.277 436.419 415.999 434.485L419.903 432.909C420.153 432.837 420.619 432.766 420.941 432.587L418.685 430.474C418.577 430.366 418.362 430.044 418.148 429.829Z" fill="#5D8F43"/>
<path fill-rule="evenodd" clip-rule="evenodd" d="M433.118 439.356C431.614 440.108 431.507 439.893 429.895 440.61C429.537 440.753 428.498 441.183 428.176 441.362L426.564 442.329C426.385 442.436 425.991 442.651 425.74 442.866C432.366 456.19 402.102 488.854 402.102 488.854L420.69 489.571C427.997 484.879 431.722 484.485 438.168 478.181C453.211 463.568 464.672 444.549 454.178 423.024L450.166 417.794C449.773 424.385 448.626 430.044 445.188 434.592C444.006 436.132 442.001 438.353 439.959 439.571C431.972 444.37 433.118 439.356 433.118 439.356Z" fill="#FA4D29"/>
<path fill-rule="evenodd" clip-rule="evenodd" d="M218.62 398.024L217.474 412.314L220.841 417.651C228.362 414.965 234.2 412.135 242.473 409.557C272.845 400.101 271.054 406.082 291.827 408.59C310.63 410.846 333.229 405.259 349.669 407.587C383.192 412.279 374.883 404.686 400.276 402.716C417.36 401.426 422.123 407.229 425.418 405.653C426.349 398.06 423.842 393.726 419.473 390.646C414.459 392.472 415.999 393.869 410.161 396.842C406.758 398.597 402.675 399.886 398.592 400.495C389.674 401.749 381.258 401.641 372.197 401.176C346.553 399.85 344.905 392.902 323.523 397.128C305.437 400.674 291.075 402.608 271.699 403.611C262.1 404.113 252.251 404.363 242.652 404.113C217.188 403.432 226.786 404.077 218.62 398.024Z" fill="#F9BA4D"/>
<path fill-rule="evenodd" clip-rule="evenodd" d="M422.875 375.603C419.759 358.948 402.747 339.177 394.51 332.05C381.759 320.982 364.854 309.808 347.627 307.372C346.983 311.527 340.607 305.331 326.89 306.262C342.541 311.992 360.306 316.899 372.519 328.826L387.132 343.26L402.568 368.296C406.078 376.892 405.863 376.391 402.998 383.697C426.564 385.022 416.787 379.686 422.875 375.603Z" fill="#DA9631"/>
<path fill-rule="evenodd" clip-rule="evenodd" d="M418.148 429.829C418.363 430.044 418.577 430.366 418.685 430.473L420.941 432.587C420.619 432.766 420.153 432.837 419.903 432.909L415.999 434.485C413.277 436.419 414.853 430.724 413.957 437.529C413.492 441.075 415.999 443.152 418.183 444.872C417.897 445.051 417.467 445.122 417.216 445.194C408.227 448.023 409.767 447.056 404.072 446.627L399.13 446.161C398.521 445.982 395.835 444.549 394.259 443.94C381.15 438.926 379.61 443.869 367.541 444.263C355.328 444.693 353.107 438.031 338.745 440.466C328.753 442.185 324.598 446.949 313.03 446.018L312.098 449.958C297.342 448.31 286.562 437.852 275.71 436.741L273.06 442.544C263.21 438.496 251.32 442.078 241.256 446.018C239.895 444.263 241.148 443.403 240.145 441.648C237.316 441.72 234.451 441.863 231.693 441.003C223.778 438.568 230.547 438.675 228.04 434.127C225.067 428.683 222.703 435.416 220.554 429.578L218.692 429.077L214.788 432.587L220.554 434.664L217.617 441.433C219.265 443.117 218.083 442.794 220.698 444.012L229.401 444.979C231.8 450.28 228.613 448.668 233.842 450.71C247.165 450.495 247.595 449.456 256.979 445.624C263.282 443.081 262.064 443.833 267.687 445.516C276.641 448.167 271.376 444.191 280.294 445.301C291.648 446.734 311.704 461.562 325.171 452.071C343.759 438.926 345.622 447.844 357.369 448.059C365.571 448.203 376.745 446.233 386.451 447.737C392.289 448.632 394.116 451.748 397.052 452.357C404.609 453.862 398.986 448.417 407.081 450.96C409.337 451.677 412.99 454.506 416.715 455.903L416.858 450.674L422.41 450.602C425.526 444.406 420.153 440.86 416.822 437.672H429.752C426.779 431.619 427.173 435.738 424.881 432.228C421.837 427.572 428.283 433.303 423.162 426.104L419.974 428.253C419.688 428.432 418.542 429.542 418.148 429.829Z" fill="#83AB66"/>
<path fill-rule="evenodd" clip-rule="evenodd" d="M228.076 298.955C235.489 291.47 227.216 296.305 240.826 288.998C261.348 278.074 259.02 252.143 246.807 246.484C251.57 265.646 216.722 267.867 228.076 298.955Z" fill="#FA4D29"/>
<path fill-rule="evenodd" clip-rule="evenodd" d="M219.48 388.783L220.017 394.299C244.443 399.385 287.995 392.293 313.459 389.499C303.073 383.052 239.035 388.496 220.769 385.595C218.584 388.067 219.802 386.491 219.48 388.783Z" fill="#F74708"/>
<path fill-rule="evenodd" clip-rule="evenodd" d="M440.675 342.938C444.042 341.254 441.786 342.795 444.329 340.001C444.83 339.464 446.442 337.279 447.051 336.383C453.282 327.537 451.384 319.084 453.891 304.722C441.929 308.876 426.564 328.146 440.675 342.938Z" fill="#FA4D29"/>
<path fill-rule="evenodd" clip-rule="evenodd" d="M419.473 387.744L420.511 386.276C417.861 383.733 422.016 385.703 417.682 385.524L337.921 386.419C349.239 387.494 362.992 390.466 376.494 391.469C385.663 392.114 400.061 392.902 409.158 390.789C411.056 390.359 412.525 389.858 414.172 389.32C419.938 387.494 413.599 388.926 419.473 387.744Z" fill="#F74708"/>
<path fill-rule="evenodd" clip-rule="evenodd" d="M258.662 490.645C264.75 493.224 272.594 492.114 279.256 491.97C277.25 489.929 278.324 489.606 271.555 488.353C267.83 487.637 266.828 487.278 263.712 486.24C255.725 483.589 244.98 478.575 238.677 473.417C234.737 470.23 233.913 467.329 231.263 465.609C228.469 463.783 231.227 464.427 228.971 465.001C230.189 469.979 236.42 478.181 239.393 481.476C243.082 485.595 250.603 490.287 258.662 490.645Z" fill="#F7CB86"/>
<path fill-rule="evenodd" clip-rule="evenodd" d="M395.297 273.275C399.882 262.745 389.674 254.435 384.338 239.93C382.189 242.401 381.58 243.905 381.115 248.991C380.721 253.146 380.756 257.05 382.046 260.99C383.98 266.971 389.173 272.809 395.297 273.275Z" fill="#FA4D29"/>
</svg>
