<svg width="32" height="31" viewBox="0 0 32 31" fill="none" xmlns="http://www.w3.org/2000/svg">
<g clip-path="url(#clip0_2824_427)">
<path d="M17.5297 27.125V17.4375C17.5297 17.1806 17.6318 16.9342 17.8134 16.7525C17.9951 16.5708 18.2415 16.4687 18.4985 16.4687H22.3735C22.6304 16.4687 22.8768 16.5708 23.0585 16.7525C23.2401 16.9342 23.3422 17.1806 23.3422 17.4375V27.125M17.5297 27.125H3.14054M17.5297 27.125H23.3422M23.3422 27.125H28.0439M26.2485 27.125V12.0758C26.7633 11.7786 27.2029 11.3669 27.5332 10.8726C27.8634 10.3783 28.0755 9.81468 28.1531 9.22528C28.2306 8.63588 28.1715 8.03654 27.9803 7.47365C27.7892 6.91075 27.471 6.39938 27.0506 5.97913L25.5135 4.44333C25.1505 4.07988 24.658 3.87545 24.1443 3.875H7.03879C6.52511 3.87545 6.03263 4.07988 5.66962 4.44333L4.13383 5.97783C3.71435 6.39858 3.39708 6.91003 3.2065 7.47277C3.01592 8.03551 2.95712 8.6345 3.03462 9.22355C3.11212 9.81261 3.32386 10.376 3.65351 10.8703C3.98316 11.3646 4.42192 11.7766 4.93596 12.0745M4.93596 27.1237V12.0771C5.71099 12.524 6.61674 12.689 7.49959 12.5442C8.38243 12.3995 9.18802 11.9537 9.77971 11.2827C10.1431 11.6953 10.5902 12.0257 11.0914 12.2518C11.5925 12.4779 12.1362 12.5944 12.686 12.5937C13.8433 12.5937 14.8818 12.0861 15.5922 11.2814C15.9554 11.6943 16.4026 12.0249 16.9037 12.2512C17.4049 12.4775 17.9486 12.5943 18.4985 12.5937C19.6558 12.5937 20.6943 12.0861 21.4047 11.2814C21.9966 11.9522 22.8022 12.3977 23.6851 12.5423C24.5679 12.6868 25.4736 12.5215 26.2485 12.0745M8.81096 23.2487H13.6547C13.9116 23.2487 14.158 23.1466 14.3397 22.965C14.5214 22.7833 14.6235 22.5369 14.6235 22.28V17.4375C14.6235 17.1806 14.5214 16.9342 14.3397 16.7525C14.158 16.5708 13.9116 16.4687 13.6547 16.4687H8.81096C8.55403 16.4687 8.30762 16.5708 8.12595 16.7525C7.94427 16.9342 7.84221 17.1806 7.84221 17.4375V22.2812C7.84221 22.8173 8.27621 23.2487 8.81096 23.2487Z" stroke="white" stroke-width="1.5" stroke-linecap="round" stroke-linejoin="round"/>
<line x1="-2.18247" y1="-2.71656" x2="31.8175" y2="33.2834" stroke="#0A1C50" stroke-width="5"/>
<line x1="-1.90948" y1="-2.02994" x2="32.0905" y2="33.9701" stroke="white" stroke-width="3"/>
</g>
<defs>
<clipPath id="clip0_2824_427">
<rect width="31" height="31" fill="white" transform="translate(0.0921631)"/>
</clipPath>
</defs>
</svg>
