<svg width="757" height="335" viewBox="0 0 757 335" fill="none" xmlns="http://www.w3.org/2000/svg">
<path d="M48.6 2.20003C40.4667 4.8667 24.8666 14.4667 18.8666 20.4667C5.79998 33.5334 4.99998 41 11.6666 91.6667C17.2666 134.733 18.7333 162.2 16.4666 179.667C15.5333 186.2 11.9333 206.6 8.33332 225C4.86665 243.267 1.53332 260.867 1.13332 264.067C-0.333351 273.8 2.59998 286.6 8.73332 298.867C16.0666 313.533 24.2 322.333 36.4667 329C45.5333 333.8 47.4 334.333 58.7333 334.733C73.8 335.4 80.4667 334.2 113 325C127 321.133 148.2 315.133 160.333 311.8C182.333 305.667 210.6 296.2 229.667 288.6C251.4 279.933 278.467 268.067 280.067 266.467C281.4 265.133 280.733 262.867 276.467 254.867C270.333 242.733 267.533 228.2 266.2 201.4L265.4 183.267L249.933 182.733C231.8 182.2 225.8 180.067 222.467 173C219.667 167.267 220.867 161.667 225.8 156.6C230.733 151.667 235.133 150.733 250.333 151.8C266.6 153 267 152.6 267 130.333C267 113.667 268.333 105.8 274.467 85.4001C276.6 78.6001 277.667 72.6001 277.133 70.6001C276.067 66.2001 266.467 60.2 252.333 55.2667C246.067 53 231.4 47.6667 219.667 43.2667C182.2 29.5334 135.933 14.8667 101.667 6.0667C80.4667 0.600031 58.3333 -0.999969 48.6 2.20003Z" fill="#A71218"/>
<path d="M677 1.26685C634.067 10.8668 580.867 27.2668 520.333 49.5335C492.467 59.9335 484.2 63.9335 480.867 69.0002C479 71.8002 479 72.7335 481 79.2668C488.467 103 489.8 110.467 490.6 130.067C491.533 153.8 490.867 153 509 151.667C518.6 151 522.333 151.267 526.067 152.867C534.733 156.467 539 167.934 534.2 174.734C530.2 180.467 524.6 182.2 507.8 183L491.8 183.667L491.533 192.334C489.933 230.334 487.933 241.534 480.6 255.134C478.067 260.067 476.2 264.867 476.6 265.934C477 267 482.733 269.933 489.133 272.6C495.667 275.267 508.467 280.6 517.667 284.467C551.267 298.467 561.933 301.8 657 328.6C675.667 333.933 678.2 334.333 693.667 334.333C710.2 334.333 710.6 334.333 719.667 329.667C731.133 323.8 739.4 315.667 746.6 302.733C753.267 291.133 756.333 280.2 756.333 269C756.333 264.6 753.933 249.267 751 235C737 167.134 736.867 161.267 746.333 86.2002C749.267 63.8002 750.733 46.8668 750.2 43.6668C749 35.8002 745.267 28.0668 739.667 21.8002C733.267 14.8668 717.8 5.13352 708.467 2.46685C701.667 0.466849 683.533 -0.199817 677 1.26685Z" fill="#A71218"/>
<path d="M355.667 62.7335C310.333 76.2002 280.6 126.067 285.8 179.667C290.2 225.267 319.133 263 357.267 272.867C370.2 276.2 389.933 275.667 402.733 271.667C433 262.067 457.4 234.467 467.133 198.334C469.533 189.534 470.067 184.067 470.067 167.667C470.067 151.267 469.533 145.8 467.133 137C457.8 102.334 435.667 76.2002 405.933 64.7335C393.933 60.0669 368.067 59.0002 355.667 62.7335Z" fill="#A71218"/>
</svg>
