<?xml version="1.0" standalone="no"?>
<!DOCTYPE svg PUBLIC "-//W3C//DTD SVG 20010904//EN"
 "http://www.w3.org/TR/2001/REC-SVG-20010904/DTD/svg10.dtd">
<svg version="1.0" xmlns="http://www.w3.org/2000/svg"
 width="1280.000000pt" height="720.000000pt" viewBox="0 0 1280.000000 720.000000"
 preserveAspectRatio="xMidYMid meet">
<metadata>
Created by potrace 1.16, written by Peter Selinger 2001-2019
</metadata>
<g transform="translate(0.000000,720.000000) scale(0.100000,-0.100000)"
fill="#000000" stroke="none">
<path d="M3413 4881 c-89 -23 -169 -102 -193 -191 -26 -97 -183 -1261 -215
-1593 -16 -172 -30 -218 -84 -279 -99 -113 -292 -110 -385 5 -64 80 -61 55
-66 517 l-5 425 -25 45 c-56 99 -168 135 -273 87 -46 -21 -61 -34 -86 -79
l-31 -53 2 -455 3 -455 27 -73 c40 -110 84 -178 173 -267 115 -115 235 -175
396 -196 293 -40 601 141 714 419 44 108 62 253 124 985 18 212 34 343 41 352
15 18 54 20 68 3 5 -7 39 -96 75 -198 36 -102 84 -237 107 -300 23 -63 60
-167 82 -230 44 -125 78 -182 135 -229 120 -99 295 -64 365 74 19 35 118 305
168 455 61 182 161 444 172 451 22 15 47 10 58 -11 6 -11 28 -265 50 -565 43
-595 43 -597 109 -661 41 -40 125 -68 178 -58 109 20 183 102 183 204 0 30
-14 161 -31 290 -17 129 -48 370 -70 535 -21 165 -53 408 -70 540 -40 311 -44
334 -79 388 -74 117 -221 156 -360 96 -49 -21 -92 -64 -120 -119 -9 -19 -54
-141 -98 -270 -44 -129 -111 -320 -147 -425 -36 -104 -76 -217 -87 -250 -33
-95 -45 -115 -73 -115 -35 0 -49 27 -112 208 -30 86 -74 213 -98 282 -24 69
-78 223 -119 343 -85 243 -92 261 -133 299 -59 56 -189 90 -270 69z"/>
<path d="M6168 4550 c-246 -42 -450 -193 -559 -415 -73 -151 -84 -201 -84
-395 0 -142 3 -176 23 -243 65 -225 199 -390 397 -487 116 -57 194 -79 320
-89 212 -17 401 26 551 125 30 20 51 41 47 47 -3 5 -1 7 4 4 17 -11 121 108
134 152 20 68 5 125 -49 181 -39 40 -55 49 -95 55 -78 12 -120 -7 -198 -85
-77 -78 -133 -107 -231 -120 -150 -19 -315 33 -394 123 -47 54 -84 134 -93
202 l-8 55 490 0 490 0 42 25 c60 35 75 72 75 187 -1 198 -61 352 -189 478
-113 112 -219 167 -380 195 -89 16 -215 18 -293 5z m302 -361 c96 -45 150
-118 153 -205 l2 -45 -339 1 c-187 0 -342 3 -344 5 -9 9 31 97 62 137 38 51
113 103 175 123 30 9 79 14 141 12 78 -2 105 -7 150 -28z"/>
<path d="M8160 4550 c-130 -23 -257 -99 -337 -203 l-22 -29 -6 29 c-16 72 -57
127 -118 160 -42 23 -141 22 -185 -1 -38 -20 -94 -75 -87 -86 3 -5 1 -10 -5
-12 -26 -9 -31 -134 -28 -711 l3 -592 28 -48 c37 -62 90 -97 159 -104 94 -10
167 29 211 111 21 40 22 52 27 466 5 412 6 427 28 481 29 73 91 143 156 177
44 22 64 26 141 27 79 0 96 -3 141 -27 63 -33 107 -84 136 -158 22 -53 23 -70
28 -530 6 -513 4 -489 64 -609 64 -125 221 -232 394 -266 122 -25 283 -17 380
17 129 46 239 131 315 243 44 64 97 201 97 251 0 47 10 47 40 1 22 -35 84 -97
136 -137 67 -51 183 -81 314 -82 300 -1 503 144 570 408 19 72 20 112 20 560
0 315 -4 492 -11 511 -5 15 -27 45 -47 66 -62 64 -164 81 -243 41 -42 -21 -96
-91 -108 -139 -7 -28 -11 -183 -11 -436 0 -429 -4 -463 -59 -544 -14 -22 -49
-53 -76 -70 -46 -29 -53 -30 -159 -30 -102 0 -115 2 -164 28 -63 33 -103 74
-139 142 -53 101 -55 122 -62 545 -6 392 -6 395 -29 428 -79 109 -223 130
-311 43 -21 -20 -44 -45 -52 -55 -12 -16 -15 -119 -19 -635 -5 -600 -6 -617
-26 -656 -27 -51 -92 -101 -144 -110 -85 -14 -154 14 -214 88 l-31 39 -6 486
c-6 535 -7 544 -71 664 -104 196 -360 303 -618 258z"/>
<path d="M2155 4472 c-152 -71 -164 -297 -22 -390 37 -23 52 -27 122 -27 72 0
85 3 128 30 129 80 132 279 7 369 -37 27 -51 31 -118 34 -59 2 -87 -2 -117
-16z"/>
</g>
</svg>
