<svg width="65" height="19" viewBox="0 0 65 19" fill="none" xmlns="http://www.w3.org/2000/svg">
<path d="M64.5966 14.736C64.5966 14.8274 64.5966 14.9187 64.6273 15.01V14.4766C64.5966 14.5534 64.5966 14.6447 64.5966 14.736Z" fill="#FF4747"/>
<path d="M34.9363 10.5153C35.7549 10.8741 36.0981 11.9949 35.5663 12.763C34.5744 14.1932 33.0232 15.0131 31.0141 14.9998C27.4693 14.9758 24.977 12.3284 25.0002 8.38201C25.02 4.8305 27.3512 1.97726 30.7273 2.00014C33.886 2.02181 36.0197 4.22013 35.9999 7.6404C35.9999 7.72949 35.9977 7.81738 35.9943 7.90406C35.9701 8.60954 35.4317 9.16334 34.784 9.15852L28.0827 9.11277C28.096 11.0077 29.4398 12.096 31.0792 12.1069C32.0711 12.1141 32.8103 11.7614 33.288 11.0498C33.6675 10.4852 34.335 10.2517 34.9297 10.5129L34.9363 10.5153ZM32.989 6.90843L33.0133 6.80249C33.021 5.5396 32.0843 4.71734 30.7107 4.70891C29.4563 4.70048 28.3916 5.5083 28.0938 6.87472L32.989 6.90843Z" fill="white"/>
<path d="M63 3.87632V9.95591C63 13.0297 61.3212 14.6403 58.7662 14.6403C57.1825 14.6403 55.957 13.8478 55.3685 12.5907V12.7546C55.3685 12.9266 55.3447 13.0905 55.2885 13.2368V13.2626C54.8666 15.3976 53.0688 17 50.9118 17C48.8187 17 46.4476 15.8365 46.4476 12.7546V7.34686C46.4476 5.68474 45.6439 4.66055 44.3469 4.66055C43.0023 4.66055 42.031 5.76317 42.031 7.68279V12.7546C42.031 13.6582 41.3549 14.3816 40.5274 14.3816H40.5036C39.6761 14.3816 39 13.6582 39 12.7546V3.84237C39 2.96449 39.6609 2.25751 40.4722 2.25751H40.5674C41.3711 2.25751 42.032 2.96332 42.032 3.84237C42.7644 2.611 44.0137 2 45.4384 2C47.8733 2 49.4807 3.66211 49.4807 6.45142V12.1775C49.4645 12.2208 49.4645 12.2723 49.4645 12.3238C49.4645 12.3753 49.4645 12.4268 49.4807 12.4783C49.5521 13.245 50.1655 13.8385 50.9129 13.8385C51.7166 13.8385 52.3613 13.1584 52.3613 12.3227V3.87632C52.3613 2.98088 53.0374 2.25751 53.8649 2.25751C54.6924 2.25751 55.3685 2.98088 55.3685 3.87632V8.4998C55.3685 10.54 56.3074 11.824 57.9149 11.824C59.2443 11.824 59.9755 10.8771 59.9755 9.13773V3.87632C59.9755 2.98088 60.644 2.25751 61.4791 2.25751H61.5029C62.3315 2.25751 63 2.98088 63 3.87632Z" fill="white"/>
<path d="M22.6114 14.8326C22.2945 15.2023 21.8996 15.3848 21.4287 15.3848C21.0066 15.3848 20.6464 15.2428 20.3512 14.9645C20.0615 14.6816 19.8901 14.321 19.8412 13.8826L19.3139 6.22627C19.2879 5.9344 19.1956 5.7879 19.0329 5.7879C18.8658 5.7879 18.7475 5.91074 18.677 6.15302L16.6338 12.1257C16.304 13.0295 15.7191 13.4814 14.8706 13.4814C14.5408 13.4814 14.2196 13.3586 13.8995 13.1118C13.5827 12.8695 13.332 12.5506 13.1432 12.1618L11.099 6.22627C11.0285 6.00765 10.9102 5.89721 10.7431 5.89721C10.602 5.89721 10.5098 6.04371 10.4621 6.33559C10.4621 6.33559 9.82948 14.348 9.72748 14.5396C9.44211 17.0504 7.38486 19 4.88815 19C2.18963 19 0 16.7315 0 13.9367V8.6841C0 7.81186 0.681412 7.10866 1.5169 7.10866C1.94333 7.10866 2.31658 7.28221 2.5987 7.57408C2.8667 7.85243 3.04248 8.24573 3.04248 8.68298V13.9367C3.04248 14.987 3.86495 15.8491 4.88815 15.8491C5.9081 15.8491 6.66547 14.9836 6.72949 13.9367C6.91937 10.8827 8.24205 1.79745 8.24205 1.79745C8.31258 1.25878 8.52308 0.824911 8.87463 0.495848C9.23161 0.169039 9.65261 0 10.1452 0C11.1565 0 11.8151 0.456406 12.1189 1.35569L14.5191 8.5376C14.6373 8.77989 14.7524 8.90273 14.8706 8.90273C15.0334 8.90273 15.1517 8.77989 15.2222 8.5376L17.6223 1.35569C17.9261 0.456406 18.5717 0 19.5613 0C20.1017 0 20.5411 0.169039 20.884 0.498102C21.2225 0.827165 21.4287 1.26103 21.4992 1.7997L22.9803 13.5558C23.0519 14.0438 22.9282 14.4675 22.6114 14.8326Z" fill="white"/>
<path d="M1.5992 3H1.40782C0.634269 3 0 3.63559 0 4.42068V4.57831C0 5.36339 0.634269 6 1.40782 6H1.5992C2.37275 6 3 5.36441 3 4.57831V4.42068C3 3.63559 2.37375 3 1.5992 3Z" fill="white"/>
</svg>
