<?xml version="1.0" standalone="no"?>
<!DOCTYPE svg PUBLIC "-//W3C//DTD SVG 20010904//EN"
 "http://www.w3.org/TR/2001/REC-SVG-20010904/DTD/svg10.dtd">
<svg version="1.0" xmlns="http://www.w3.org/2000/svg"
 width="7680.000000pt" height="4320.000000pt" viewBox="0 0 7680.000000 4320.000000"
 preserveAspectRatio="xMidYMid meet">
<metadata>
Created by potrace 1.16, written by Peter Selinger 2001-2019
</metadata>
<g transform="translate(0.000000,4320.000000) scale(0.100000,-0.100000)"
fill="#000000" stroke="none">
<path d="M20610 29336 c-249 -36 -463 -118 -665 -255 -338 -227 -565 -556
-669 -966 -31 -123 -81 -453 -321 -2105 -540 -3719 -885 -6459 -995 -7889 -31
-406 -76 -587 -206 -842 -156 -304 -419 -565 -709 -704 -413 -198 -909 -195
-1330 9 -384 187 -684 538 -809 948 -65 211 -59 2 -66 2568 -7 2569 -2 2368
-66 2565 -127 387 -458 714 -839 830 -183 56 -436 72 -621 40 -458 -80 -848
-415 -994 -853 -70 -212 -64 12 -68 -2507 -2 -1587 0 -2322 8 -2444 56 -875
355 -1648 909 -2346 122 -154 462 -494 616 -616 561 -445 1175 -728 1855 -853
280 -51 400 -61 765 -61 294 1 362 4 505 23 599 81 1124 263 1615 559 1058
637 1768 1696 1956 2918 11 72 24 148 29 170 56 251 292 2798 550 5920 61 740
72 829 119 937 23 55 73 113 114 135 44 22 134 12 191 -21 51 -30 98 -80 126
-136 11 -22 414 -1141 896 -2488 562 -1571 890 -2474 915 -2522 205 -380 521
-693 874 -865 199 -98 359 -135 574 -135 678 1 1166 347 1445 1022 19 46 430
1198 915 2560 484 1363 890 2496 901 2518 29 57 86 117 134 143 61 31 160 30
208 -3 69 -47 109 -134 129 -280 6 -41 111 -1486 234 -3210 239 -3336 230
-3229 296 -3417 135 -383 439 -690 805 -812 153 -51 217 -62 415 -68 151 -4
207 -2 290 12 280 47 498 161 710 374 274 276 405 595 386 945 -8 157 -1274
9803 -1303 9935 -150 673 -615 1134 -1264 1253 -159 30 -540 32 -705 5 -584
-97 -964 -374 -1204 -878 -44 -92 -322 -883 -1096 -3114 -570 -1644 -1049
-3018 -1065 -3051 -70 -153 -204 -228 -314 -175 -56 28 -129 106 -183 198 -33
55 -250 670 -1053 2984 -556 1602 -1028 2957 -1047 3009 -217 582 -648 927
-1283 1025 -145 23 -487 28 -610 11z"/>
<path d="M37485 27380 c-1374 -95 -2531 -688 -3351 -1716 -589 -739 -944
-1654 -1046 -2694 -20 -207 -17 -849 5 -1070 45 -445 127 -841 253 -1218 589
-1768 2054 -2932 3999 -3177 308 -39 510 -48 893 -42 347 5 492 16 771 57 989
146 1843 561 2491 1210 460 460 606 741 587 1129 -12 252 -97 474 -255 673
-182 227 -460 388 -741 429 -129 18 -333 7 -456 -26 -269 -71 -488 -224 -682
-476 -375 -488 -904 -742 -1623 -778 -751 -38 -1435 170 -1931 587 -292 246
-509 568 -633 942 -71 212 -116 471 -116 661 l0 82 708 -7 c1398 -12 4473 -28
4762 -24 268 4 302 7 375 27 275 77 499 259 628 507 99 194 123 353 114 764
-18 760 -164 1387 -462 1979 -585 1167 -1734 1942 -3165 2135 -332 45 -836 66
-1125 46z m738 -2100 c807 -121 1347 -569 1489 -1233 23 -111 32 -377 13 -396
-10 -10 -4050 10 -4060 21 -3 2 4 36 15 74 177 639 620 1140 1227 1388 202 83
441 142 668 165 144 15 489 5 648 -19z"/>
<path d="M49410 27384 c-296 -26 -521 -61 -742 -118 -595 -154 -1095 -438
-1494 -848 -130 -134 -226 -250 -307 -370 -29 -43 -55 -77 -58 -78 -3 0 -9 42
-12 93 -17 268 -150 551 -357 757 -179 180 -398 297 -647 347 -123 24 -433 25
-555 0 -436 -87 -796 -392 -943 -797 -14 -41 -36 -113 -48 -160 l-21 -85 -4
-3630 c-2 -2552 0 -3655 8 -3715 35 -274 170 -551 365 -745 429 -429 1126
-498 1637 -162 115 75 276 234 348 342 100 149 160 289 203 477 21 93 21 94
27 2343 6 2062 8 2260 23 2364 90 592 280 1017 601 1350 345 355 801 541 1329
541 464 0 848 -137 1159 -412 304 -269 521 -718 592 -1228 8 -58 18 -123 22
-145 3 -22 10 -1140 13 -2485 8 -2618 5 -2466 55 -2755 37 -209 111 -469 188
-653 459 -1105 1519 -1804 2998 -1978 186 -22 699 -30 883 -14 820 69 1586
389 2199 918 131 112 367 357 471 487 333 415 579 911 697 1402 17 71 42 169
57 218 21 74 26 117 30 248 l5 159 40 -74 c54 -99 192 -305 274 -408 93 -115
297 -318 421 -417 455 -364 1003 -583 1673 -669 169 -21 621 -30 825 -15 1491
109 2505 801 2979 2033 156 406 241 848 266 1387 16 326 8 5164 -8 5242 -70
338 -241 614 -497 807 -141 105 -362 200 -545 233 -108 20 -373 17 -482 -4
-262 -52 -476 -165 -664 -352 -180 -179 -287 -374 -351 -640 -16 -64 -18 -256
-23 -2385 -6 -2090 -8 -2327 -23 -2440 -47 -352 -116 -590 -239 -832 -79 -157
-163 -273 -283 -393 -314 -314 -735 -459 -1285 -442 -538 16 -977 186 -1328
513 -187 174 -318 354 -443 609 -184 376 -273 763 -299 1292 -5 111 -10 1021
-10 2074 0 1618 -2 1888 -15 1962 -46 263 -164 487 -360 682 -187 186 -400
300 -663 352 -121 24 -367 24 -482 0 -349 -74 -638 -265 -825 -547 -92 -138
-148 -268 -192 -445 -16 -65 -17 -301 -23 -3565 l-5 -3495 -27 -96 c-70 -254
-183 -444 -356 -599 -236 -211 -521 -320 -837 -320 -589 0 -1080 394 -1195
959 l-21 104 -2 2561 c-2 2820 2 2599 -62 2974 -142 824 -529 1514 -1108 1975
-481 385 -1056 610 -1767 693 -128 15 -671 27 -780 18z"/>
<path d="M13303 26980 c-492 -62 -918 -412 -1071 -880 -44 -134 -53 -200 -59
-421 -4 -172 -2 -237 11 -319 75 -476 410 -871 867 -1024 170 -57 273 -69 553
-64 229 5 247 7 359 36 191 50 387 153 526 277 236 210 382 479 427 785 21
145 15 473 -11 590 -57 260 -170 466 -355 650 -187 186 -386 295 -645 352 -70
15 -138 20 -310 23 -121 2 -252 0 -292 -5z"/>
</g>
</svg>
