<svg width="49" height="15" viewBox="0 0 49 15" fill="none" xmlns="http://www.w3.org/2000/svg">
<path d="M48.9766 11.7651C48.9766 11.8343 48.9766 11.9036 48.9999 11.9728V11.5684C48.9766 11.6266 48.9766 11.6958 48.9766 11.7651Z" fill="#FF4747"/>
<path d="M26.4885 8.56563C27.1091 8.83764 27.3693 9.68744 26.9661 10.2698C26.2141 11.3542 25.038 11.9758 23.5147 11.9658C20.827 11.9475 18.9374 9.94029 18.955 6.94817C18.97 4.25544 20.7375 2.09214 23.2972 2.10948C25.6921 2.12591 27.3099 3.79266 27.2949 6.38589C27.2949 6.45344 27.2932 6.52007 27.2907 6.58579C27.2723 7.12068 26.8641 7.54057 26.373 7.53692L21.2921 7.50223C21.3022 8.93896 22.321 9.76412 23.5641 9.77233C24.3161 9.77781 24.8765 9.51036 25.2387 8.97091C25.5265 8.54281 26.0326 8.36573 26.4834 8.5638L26.4885 8.56563ZM25.012 5.83091L25.0304 5.75059C25.0363 4.79308 24.3261 4.16964 23.2847 4.16325C22.3336 4.15686 21.5264 4.76934 21.3005 5.80536L25.012 5.83091Z" fill="#BABABA"/>
<path d="M47.7661 3.53199V8.14149C47.7661 10.472 46.4933 11.6931 44.5561 11.6931C43.3554 11.6931 42.4262 11.0923 41.98 10.1392V10.2634C41.98 10.3939 41.962 10.5181 41.9193 10.6291V10.6486C41.5995 12.2673 40.2364 13.4823 38.601 13.4823C37.014 13.4823 35.2162 12.6001 35.2162 10.2634V6.16333C35.2162 4.90312 34.6069 4.12659 33.6235 4.12659C32.6041 4.12659 31.8676 4.96258 31.8676 6.41803V10.2634C31.8676 10.9486 31.355 11.497 30.7276 11.497H30.7095C30.0821 11.497 29.5695 10.9486 29.5695 10.2634V3.50625C29.5695 2.84065 30.0706 2.30462 30.6857 2.30462H30.7579C31.3673 2.30462 31.8684 2.83976 31.8684 3.50625C32.4236 2.57263 33.3709 2.10938 34.451 2.10938C36.2972 2.10938 37.5159 3.36958 37.5159 5.48441V9.8259C37.5036 9.85874 37.5036 9.89779 37.5036 9.93684C37.5036 9.97589 37.5036 10.0149 37.5159 10.054C37.5701 10.6353 38.0351 11.0852 38.6018 11.0852C39.2112 11.0852 39.7 10.5696 39.7 9.93595V3.53199C39.7 2.85307 40.2126 2.30462 40.84 2.30462C41.4674 2.30462 41.98 2.85307 41.98 3.53199V7.03748C41.98 8.58434 42.6919 9.55789 43.9106 9.55789C44.9186 9.55789 45.473 8.83993 45.473 7.52115V3.53199C45.473 2.85307 45.9799 2.30462 46.613 2.30462H46.6311C47.2593 2.30462 47.7661 2.85307 47.7661 3.53199Z" fill="#BABABA"/>
<path d="M17.1438 11.8397C16.9036 12.12 16.6041 12.2584 16.2471 12.2584C15.927 12.2584 15.6539 12.1507 15.4301 11.9397C15.2105 11.7252 15.0805 11.4518 15.0435 11.1195L14.6437 5.31447C14.6239 5.09317 14.554 4.98209 14.4306 4.98209C14.3039 4.98209 14.2142 5.07523 14.1608 5.25893L12.6117 9.7874C12.3616 10.4727 11.9181 10.8153 11.2748 10.8153C11.0247 10.8153 10.7812 10.7221 10.5385 10.535C10.2983 10.3513 10.1082 10.1095 9.9651 9.81474L8.41517 5.31447C8.3617 5.14871 8.27203 5.06497 8.14534 5.06497C8.03839 5.06497 7.96846 5.17605 7.93226 5.39735C7.93226 5.39735 7.45264 11.4723 7.37531 11.6176C7.15894 13.5213 5.59915 14.9994 3.70616 14.9994C1.66016 14.9994 0 13.2794 0 11.1605V7.17798C0 6.51665 0.516642 5.98349 1.1501 5.98349C1.47342 5.98349 1.75642 6.11507 1.97031 6.33636C2.17352 6.54741 2.30679 6.8456 2.30679 7.17712V11.1605C2.30679 11.9568 2.93038 12.6104 3.70616 12.6104C4.47948 12.6104 5.05371 11.9542 5.10225 11.1605C5.24622 8.84497 6.24906 1.95656 6.24906 1.95656C6.30254 1.54815 6.46214 1.21919 6.72868 0.969699C6.99934 0.721914 7.31854 0.59375 7.69204 0.59375C8.45877 0.59375 8.95814 0.939793 9.18849 1.62163L11.0083 7.0669C11.0979 7.2506 11.1851 7.34374 11.2748 7.34374C11.3982 7.34374 11.4879 7.2506 11.5414 7.0669L13.3611 1.62163C13.5915 0.939793 14.081 0.59375 14.8312 0.59375C15.2409 0.59375 15.5741 0.721914 15.8341 0.971407C16.0908 1.2209 16.2471 1.54986 16.3005 1.95827L17.4235 10.8717C17.4778 11.2416 17.384 11.5629 17.1438 11.8397Z" fill="#BABABA"/>
<path d="M1.2125 2.86914H1.0674C0.480898 2.86914 0 3.35104 0 3.94629V4.0658C0 4.66105 0.480898 5.14372 1.0674 5.14372H1.2125C1.799 5.14372 2.27458 4.66182 2.27458 4.0658V3.94629C2.27458 3.35104 1.79976 2.86914 1.2125 2.86914Z" fill="#BABABA"/>
</svg>
