<svg id="Capa_1" data-name="Capa 1" xmlns="http://www.w3.org/2000/svg" viewBox="0 0 500 500"><defs><style>.cls-1{fill:#ff4747;}</style></defs><path class="cls-1" d="M271.53,266.5c5.25,2.1,7.45,8.69,4,13.2-6.36,8.41-16.31,13.23-29.19,13.15-22.73-.14-38.71-15.71-38.57-38.9.13-20.87,15.08-37.63,36.72-37.5,20.26.13,33.94,13.05,33.82,33.15,0,.52,0,1,0,1.54a7.71,7.71,0,0,1-7.76,7.38l-43-.27c.08,11.13,8.7,17.53,19.21,17.59,6.36,0,11.1-2,14.17-6.21a8.92,8.92,0,0,1,10.52-3.15ZM259,245.3l.16-.62c.05-7.42-5.95-12.25-14.76-12.3-8,0-14.88,4.7-16.78,12.73Z"/><path class="cls-1" d="M363,278.83a3,3,0,0,0,.1.94V278A2.51,2.51,0,0,0,363,278.83Z"/><path class="cls-1" d="M450.64,227.78v36.74c0,18.58-11,28.31-27.69,28.31-10.35,0-18.37-4.79-22.22-12.38v1a7.68,7.68,0,0,1-.52,2.91v.16c-2.76,12.9-14.52,22.58-28.63,22.58-13.68,0-29.19-7-29.19-25.65V248.75c0-10-5.26-16.24-13.74-16.24-8.8,0-15.15,6.66-15.15,18.27v30.66a9.82,9.82,0,0,1-9.83,9.83h-.16a9.83,9.83,0,0,1-9.84-9.83V227.57A9.6,9.6,0,0,1,303.3,218h.63a9.59,9.59,0,0,1,9.57,9.58c4.79-7.44,13-11.14,22.28-11.14,15.92,0,26.44,10,26.44,26.91V278a2.29,2.29,0,0,0-.11.88,2.72,2.72,0,0,0,.11.94,9.46,9.46,0,0,0,18.84-.94v-51a9.84,9.84,0,0,1,19.67,0v27.95c0,12.33,6.14,20.08,16.65,20.08,8.7,0,13.48-5.72,13.48-16.23v-31.8A9.79,9.79,0,0,1,440.7,218h.16A9.77,9.77,0,0,1,450.64,227.78Z"/><path class="cls-1" d="M60.65,186.19H59.3a9.93,9.93,0,0,0-9.94,9.89v1.09a9.92,9.92,0,0,0,9.94,9.89h1.35a9.88,9.88,0,0,0,9.89-9.89v-1.09A9.89,9.89,0,0,0,60.65,186.19Z"/><path class="cls-1" d="M196.39,241.78v39.66a9.83,9.83,0,0,1-9.84,9.83h-.16a9.78,9.78,0,0,1-9.78-9.83V245.52c0-8.06-4.53-12.7-10.83-12.7-6.66,0-10.82,5-10.82,13.43v35.19a9.84,9.84,0,0,1-19.67,0V245.52c0-7.91-4.48-12.23-10.83-12.23s-10.83,5-10.83,13.74v35A31.83,31.83,0,0,1,50,282V227.93a9.92,9.92,0,0,1,19.83,0V282a12,12,0,0,0,24,0V226.94a9,9,0,0,1,9-8.95h1.82a9,9,0,0,1,8.95,8.95c3.75-7,9.79-10.51,18.12-10.51,8.79,0,15.92,4.63,19,13.79,4.32-9.31,11.87-13.79,21.19-13.79C187,216.43,196.39,225.69,196.39,241.78Z"/></svg>