<svg width="450" height="312" viewBox="0 0 450 312" fill="none" xmlns="http://www.w3.org/2000/svg">
<path d="M450 147.162C450 66.088 349.274 0 225.012 0C100.756 0 0.0289993 66.087 0.0289993 147.162C0.0289993 149.253 0 155.04 0 155.778C0 241.783 88.043 311.446 224.979 311.446C362.769 311.446 450 241.802 450 155.794C450 152.786 450 151.057 450 147.162Z" fill="#273577"/>
<path d="M441.386 147.09C441.386 223.521 344.531 285.481 225.052 285.481C105.571 285.481 8.72607 223.521 8.72607 147.09C8.72607 70.651 105.572 8.68799 225.052 8.68799C344.53 8.68699 441.386 70.65 441.386 147.09Z" fill="#3FB6E9"/>
<path d="M153.222 103.425C153.106 103.642 150.948 105.876 152.346 107.671C155.765 112.032 166.305 114.532 176.967 112.142C183.317 110.715 191.451 104.24 199.339 97.987C207.881 91.197 216.36 84.402 224.881 81.699C233.903 78.829 239.682 80.059 243.5 81.216C247.693 82.466 252.617 85.222 260.476 91.121C275.279 102.248 334.806 154.201 345.085 163.185C353.366 159.441 390.172 143.597 440.197 132.568C435.854 105.901 419.627 81.505 395.026 61.525C360.744 75.926 318.837 83.441 277.858 63.429C277.65 63.343 255.47 52.844 233.592 53.362C201.084 54.115 187.003 68.188 172.093 83.084L153.222 103.425Z" fill="white"/>
<path d="M342.666 168.833C341.97 168.212 272.676 107.584 256.984 95.785C247.899 88.974 242.845 87.234 237.539 86.56C234.778 86.202 230.96 86.714 228.295 87.445C220.993 89.431 211.445 95.816 202.969 102.537C194.189 109.526 185.917 116.111 178.235 117.83C168.429 120.029 156.447 117.434 150.981 113.737C148.763 112.248 147.205 110.529 146.455 108.779C144.439 104.095 148.165 100.352 148.775 99.724L167.895 79.043C170.114 76.825 172.355 74.606 174.646 72.419C168.475 73.222 162.774 74.798 157.224 76.344C150.297 78.293 143.634 80.144 136.892 80.142C134.076 80.142 118.995 77.669 116.136 76.89C98.8311 72.155 83.6451 67.542 60.9581 56.953C33.7801 77.187 15.5991 102.489 10.3501 130.358C14.2531 131.391 20.5491 133.263 23.1901 133.851C84.7041 147.529 103.865 161.62 107.339 164.558C111.102 160.376 116.528 157.723 122.588 157.723C129.397 157.731 135.529 161.152 139.255 166.436C142.781 163.655 147.639 161.278 153.919 161.28C156.77 161.28 159.733 161.808 162.72 162.822C169.655 165.203 173.236 169.823 175.099 174.003C177.424 172.953 180.289 172.179 183.659 172.187C186.97 172.187 190.415 172.943 193.889 174.446C205.229 179.312 206.999 190.454 205.967 198.854C206.775 198.757 207.587 198.721 208.413 198.721C221.859 198.727 232.794 209.658 232.794 223.112C232.794 227.276 231.73 231.191 229.88 234.624C233.537 236.682 242.865 241.339 251.054 240.301C257.595 239.471 260.078 237.239 260.971 235.98C261.58 235.117 262.224 234.108 261.62 233.384L244.266 214.101C244.266 214.101 241.406 211.399 242.352 210.353C243.332 209.281 245.092 210.817 246.345 211.867C255.18 219.244 265.965 230.38 265.965 230.38C266.144 230.496 266.864 231.904 270.851 232.618C274.287 233.233 280.359 232.879 284.57 229.427C285.631 228.551 286.692 227.456 287.58 226.338C287.514 226.384 287.453 226.464 287.389 226.493C291.826 220.809 286.896 215.063 286.896 215.063L266.63 192.31C266.63 192.31 263.736 189.631 264.717 188.552C265.601 187.618 267.466 189.028 268.733 190.084C275.153 195.449 284.22 204.549 292.902 213.057C294.595 214.303 302.238 219.018 312.344 212.378C318.485 208.359 319.715 203.412 319.541 199.683C319.114 194.747 315.261 191.227 315.261 191.227L287.58 163.401C287.58 163.401 284.657 160.9 285.696 159.637C286.533 158.577 288.439 160.107 289.68 161.151C298.501 168.528 322.371 190.41 322.371 190.41C322.704 190.652 330.953 196.522 341.146 190.035C344.791 187.706 347.119 184.192 347.316 180.115C347.662 173.036 342.666 168.833 342.666 168.833Z" fill="white"/>
<path d="M208.409 204.111C204.117 204.059 199.42 206.61 198.805 206.24C198.469 206.014 199.069 204.292 199.472 203.3C199.884 202.308 205.536 185.3 191.759 179.395C181.216 174.865 174.776 179.96 172.557 182.261C171.974 182.868 171.716 182.816 171.649 182.046C171.438 178.988 170.069 170.701 160.964 167.929C147.962 163.941 139.6 173.023 137.478 176.296C136.53 168.885 130.26 163.131 122.584 163.123C114.245 163.115 107.483 169.871 107.471 178.211C107.469 186.547 114.227 193.308 122.569 193.308C126.62 193.321 130.298 191.697 133.006 189.097C133.09 189.171 133.125 189.316 133.081 189.604C132.446 193.337 131.278 206.908 145.484 212.428C151.184 214.637 156.029 212.997 160.045 210.179C161.246 209.332 161.437 209.686 161.266 210.817C160.752 214.308 161.402 221.777 171.876 226.021C179.847 229.257 184.562 225.94 187.653 223.087C188.996 221.857 189.364 222.06 189.434 223.957C189.814 234.059 198.203 242.074 208.389 242.081C218.883 242.087 227.384 233.602 227.394 223.117C227.401 212.619 218.899 204.227 208.409 204.111Z" fill="white"/>
<path d="M345.342 161.578C324.001 142.947 274.674 100.065 261.316 90.034C253.681 84.295 248.476 81.264 243.907 79.902C241.851 79.282 239.012 78.576 235.356 78.573C231.954 78.573 228.307 79.187 224.497 80.4C215.865 83.131 207.264 89.969 198.942 96.578L198.515 96.918C190.762 103.077 182.753 109.451 176.692 110.804C174.048 111.4 171.328 111.71 168.611 111.71C161.826 111.699 155.725 109.743 153.437 106.824C153.06 106.343 153.304 105.561 154.185 104.438L154.301 104.289L173.076 84.054C187.786 69.349 201.676 55.465 233.648 54.727C234.179 54.713 234.719 54.705 235.249 54.705C255.147 54.717 275.044 63.627 277.274 64.659C295.939 73.758 315.199 78.383 334.566 78.401C354.745 78.407 375.564 73.411 397.457 63.33C395.013 61.271 392.464 59.274 389.849 57.308C370.618 65.646 352.295 69.861 334.622 69.854C316.566 69.84 298.52 65.503 281.007 56.957C280.086 56.516 258.115 46.159 235.26 46.146C234.663 46.146 234.051 46.159 233.453 46.166C206.596 46.793 191.466 56.334 181.296 64.688C171.4 64.926 162.863 67.314 155.269 69.435C148.492 71.318 142.638 72.954 136.928 72.949C134.58 72.949 130.346 72.734 129.964 72.721C123.399 72.52 90.3311 64.409 64.0221 54.451C61.3341 56.352 58.7501 58.314 56.2331 60.314C83.7161 71.582 117.164 80.297 127.719 80.981C130.653 81.173 133.785 81.505 136.917 81.512C143.9 81.512 150.864 79.55 157.615 77.665C161.596 76.544 165.995 75.328 170.614 74.442C169.381 75.651 168.152 76.881 166.919 78.123L147.837 98.758C146.332 100.273 143.079 104.32 145.225 109.301C146.08 111.311 147.814 113.233 150.238 114.87C154.788 117.929 162.928 119.999 170.489 120.005C173.355 120.006 176.068 119.72 178.567 119.158C186.561 117.363 194.951 110.685 203.835 103.62C210.916 97.991 220.977 90.85 228.68 88.752C230.828 88.164 233.469 87.804 235.598 87.804C236.23 87.809 236.828 87.828 237.39 87.906C242.476 88.553 247.397 90.284 256.18 96.876C271.835 108.639 341.137 169.258 341.813 169.859C341.865 169.898 346.278 173.71 345.971 180.046C345.806 183.576 343.844 186.717 340.436 188.896C337.478 190.768 334.424 191.724 331.337 191.724C326.706 191.714 323.518 189.544 323.313 189.397C323.057 189.19 299.315 167.418 290.581 160.107C289.186 158.954 287.837 157.918 286.466 157.918C285.736 157.912 285.089 158.222 284.654 158.771C283.279 160.465 284.819 162.809 286.631 164.351L314.369 192.227C314.404 192.26 317.82 195.467 318.196 199.741C318.413 204.363 316.207 208.224 311.614 211.241C308.34 213.392 305.023 214.488 301.781 214.488C297.525 214.488 294.535 212.546 293.875 212.088L289.893 208.166C282.623 201.01 275.116 193.616 269.621 189.028C268.281 187.914 266.85 186.889 265.484 186.889C264.814 186.889 264.204 187.138 263.737 187.628C263.109 188.326 262.676 189.579 264.236 191.655C264.877 192.508 265.634 193.216 265.634 193.216L285.877 215.943C286.045 216.146 290.049 220.902 286.329 225.646L285.619 226.551C285.012 227.224 284.357 227.839 283.737 228.361C280.286 231.198 275.673 231.504 273.849 231.504C272.869 231.504 271.926 231.417 271.105 231.272C269.113 230.912 267.77 230.355 267.124 229.584L266.874 229.335C265.769 228.186 255.568 217.775 247.127 210.729C246.014 209.797 244.628 208.619 243.192 208.619C242.485 208.619 241.85 208.897 241.366 209.437C239.693 211.269 242.207 214 243.268 215.005L260.53 234.038C260.509 234.212 260.289 234.608 259.872 235.21C259.254 236.057 257.161 238.15 250.897 238.946C250.149 239.037 249.375 239.079 248.612 239.079C242.152 239.079 235.268 235.946 231.716 234.062C233.331 230.648 234.169 226.894 234.169 223.119C234.178 208.911 222.64 197.359 208.432 197.347C208.131 197.347 207.809 197.359 207.501 197.37C207.968 190.883 207.052 178.602 194.444 173.192C190.819 171.62 187.198 170.823 183.68 170.823C180.928 170.823 178.281 171.293 175.784 172.25C173.177 167.175 168.839 163.479 163.179 161.547C160.056 160.466 156.944 159.919 153.941 159.919C148.695 159.919 143.861 161.46 139.549 164.526C135.42 159.395 129.177 156.349 122.607 156.349C116.862 156.349 111.33 158.652 107.233 162.708C101.863 158.606 80.5481 145.067 23.5071 132.116C20.7441 131.491 14.4031 129.672 10.5171 128.535C9.87311 131.622 9.38311 134.745 9.05811 137.896C9.05811 137.896 19.5811 140.416 21.6511 140.878C79.9221 153.821 99.1761 167.282 102.432 169.823C101.33 172.469 100.757 175.329 100.751 178.209C100.745 190.241 110.535 200.049 122.582 200.062C123.934 200.062 125.27 199.946 126.59 199.702C128.403 208.558 134.199 215.275 143.06 218.718C145.646 219.716 148.267 220.225 150.837 220.225C152.498 220.231 154.175 220.022 155.809 219.606C157.445 223.764 161.13 228.942 169.36 232.282C172.242 233.448 175.13 234.056 177.936 234.056C180.227 234.056 182.469 233.657 184.605 232.861C188.55 242.47 197.932 248.84 208.4 248.84C215.333 248.846 221.993 246.022 226.851 241.022C231.004 243.337 239.786 247.511 248.648 247.53C249.796 247.53 250.875 247.449 251.947 247.315C260.753 246.201 264.854 242.764 266.735 240.084C267.071 239.618 267.379 239.121 267.64 238.61C269.722 239.202 272.007 239.689 274.625 239.695C279.433 239.695 284.046 238.059 288.715 234.661C293.296 231.348 296.555 226.611 297.022 222.569C297.03 222.517 297.045 222.453 297.051 222.395C298.591 222.714 300.176 222.882 301.763 222.882C306.713 222.882 311.579 221.333 316.233 218.29C325.21 212.403 326.77 204.713 326.622 199.686C328.194 200.015 329.8 200.185 331.392 200.185C336.043 200.185 340.607 198.781 344.957 196.009C350.519 192.454 353.868 187.008 354.372 180.668C354.726 176.359 353.656 172.015 351.385 168.282C366.423 161.803 400.798 149.262 441.275 140.141C441.032 137.003 440.579 133.904 440.019 130.819C391.044 141.688 354.499 157.503 345.342 161.578ZM208.409 240.727C198.898 240.717 191.167 233.333 190.819 223.916C190.79 223.104 190.708 220.957 188.893 220.957C188.145 220.957 187.498 221.404 186.75 222.077C184.66 224.019 181.995 225.986 178.106 225.986C176.337 225.986 174.426 225.58 172.405 224.75C162.361 220.685 162.225 213.784 162.636 211.012C162.744 210.269 162.781 209.504 162.274 208.9L161.66 208.349H161.03C160.516 208.349 159.995 208.558 159.281 209.063C156.373 211.098 153.589 212.09 150.755 212.09C149.198 212.09 147.6 211.777 145.994 211.162C132.772 206.012 133.819 193.531 134.462 189.773C134.561 189.015 134.37 188.423 133.885 188.032L132.951 187.262L132.078 188.101C129.5 190.586 126.128 191.942 122.584 191.942C115.013 191.936 108.849 185.778 108.854 178.21C108.86 170.63 115.027 164.482 122.605 164.49C129.448 164.49 135.276 169.637 136.152 176.474L136.619 180.16L138.643 177.044C138.873 176.676 144.42 168.285 154.624 168.296C156.563 168.296 158.567 168.609 160.585 169.232C168.716 171.715 170.093 179.088 170.308 182.159C170.453 183.952 171.726 184.033 171.976 184.033C172.678 184.033 173.197 183.592 173.562 183.203C175.096 181.602 178.439 178.942 183.673 178.942C186.062 178.946 188.611 179.511 191.242 180.646C204.169 186.191 198.306 202.615 198.235 202.789C197.122 205.51 197.082 206.711 198.125 207.406L198.635 207.644H199.006C199.592 207.644 200.317 207.394 201.512 206.988C203.272 206.379 205.929 205.462 208.41 205.468H208.416C218.148 205.578 226.06 213.496 226.055 223.115C226.044 232.834 218.128 240.727 208.409 240.727Z" fill="#273577"/>
</svg>
